<svg enable-background="new 0 0 512 512" viewBox="0 0 512 512" xmlns="http://www.w3.org/2000/svg"><path d="m16.101 433.477c51.257 11.934 102.515 11.496 153.772 6.648v-.146c106.749-10.903 213.498-42.724 320.248-17.049 9.944 2.392 19.499-5.177 19.499-15.405v-298.797-14.698c0-.632-.05-1.253-.123-1.868-2.445-6.466-8.167-12.093-14.835-13.639-97.449-22.688-194.899-.69-292.348 11.399-10.813 1.452-21.626 2.773-32.439 3.878v-.3c-51.257 4.848-102.515 5.286-153.772-6.648-8.894-2.062-16.103 3.038-16.103 11.936v314.424c0 8.886 7.209 18.204 16.101 20.265z" fill="#0b67b2"/><path d="m509.619 92.532c-2.364-6.619-8.163-12.435-14.959-14.01-51.638-12.022-103.276-11.49-154.914-6.54v346.626c51.638-4.95 103.276-5.482 154.914 6.54 6.795 1.575 12.595-1.041 14.959-6.328z" fill="#ff473e"/><path d="m169.873 440.125c56.624-5.356 113.249-16.089 169.873-21.517v-346.626c-56.624 5.428-113.249 16.161-169.873 21.517z" fill="#e8e8e8"/></svg>